<svg width="69" height="31" viewBox="0 0 69 31" fill="none" xmlns="http://www.w3.org/2000/svg">
<path opacity="0.5" d="M13.4375 30L12.4507 29.8381L12.2601 31H13.4375V30ZM18.2102 0.90909V-0.09091H17.3609L17.2234 0.747192L18.2102 0.90909ZM22.7557 0.90909L23.7425 1.07099L23.9331 -0.09091H22.7557V0.90909ZM17.983 30V31H18.8323L18.9698 30.1619L17.983 30ZM0.411932 22.7841L-0.574628 22.6207L-0.767316 23.7841H0.411932V22.7841ZM1.16477 18.2386V17.2386H0.316775L0.178213 18.0752L1.16477 18.2386ZM23.892 18.2386L24.8786 18.402L25.0713 17.2386H23.892V18.2386ZM23.1392 22.7841V23.7841H23.9872L24.1258 22.9475L23.1392 22.7841ZM3.21023 30L2.22342 29.8381L2.0328 31H3.21023V30ZM7.98295 0.90909V-0.09091H7.13365L6.99615 0.747192L7.98295 0.90909ZM12.5284 0.90909L13.5152 1.07099L13.7058 -0.09091H12.5284V0.90909ZM7.75568 30V31H8.60499L8.74249 30.1619L7.75568 30ZM2.07386 12.6705L1.08781 12.5041L0.890975 13.6705H2.07386V12.6705ZM2.84091 8.125V7.125H1.99552L1.85485 7.9586L2.84091 8.125ZM25.5682 8.125L26.5542 8.2914L26.7511 7.125H25.5682V8.125ZM24.8011 12.6705V13.6705H25.6465L25.7872 12.8369L24.8011 12.6705ZM14.4243 30.1619L19.197 1.07099L17.2234 0.747192L12.4507 29.8381L14.4243 30.1619ZM18.2102 1.90909H22.7557V-0.09091H18.2102V1.90909ZM21.7689 0.747192L16.9961 29.8381L18.9698 30.1619L23.7425 1.07099L21.7689 0.747192ZM17.983 29H13.4375V31H17.983V29ZM1.39849 22.9475L2.15133 18.402L0.178213 18.0752L-0.574628 22.6207L1.39849 22.9475ZM1.16477 19.2386H23.892V17.2386H1.16477V19.2386ZM22.9055 18.0752L22.1526 22.6207L24.1258 22.9475L24.8786 18.402L22.9055 18.0752ZM23.1392 21.7841H0.411932V23.7841H23.1392V21.7841ZM4.19703 30.1619L8.96976 1.07099L6.99615 0.747192L2.22342 29.8381L4.19703 30.1619ZM7.98295 1.90909H12.5284V-0.09091H7.98295V1.90909ZM11.5416 0.747192L6.76887 29.8381L8.74249 30.1619L13.5152 1.07099L11.5416 0.747192ZM7.75568 29H3.21023V31H7.75568V29ZM3.05992 12.8369L3.82697 8.2914L1.85485 7.9586L1.08781 12.5041L3.05992 12.8369ZM2.84091 9.125H25.5682V7.125H2.84091V9.125ZM24.5821 7.9586L23.8151 12.5041L25.7872 12.8369L26.5542 8.2914L24.5821 7.9586ZM24.8011 11.6705H2.07386V13.6705H24.8011V11.6705ZM39.7408 30.6392L39.7369 31.6392H39.7408V30.6392ZM33.4339 28.8352L32.871 29.6617L32.8731 29.6631L33.4339 28.8352ZM29.3857 23.6506L28.4618 24.0333L28.4631 24.0366L29.3857 23.6506ZM27.9936 15.483L28.9936 15.4859V15.483H27.9936ZM29.3999 7.37216L28.4791 6.98201L28.4777 6.98532L29.3999 7.37216ZM33.4482 2.27273L34.0018 3.10547L34.0029 3.10478L33.4482 2.27273ZM46.0192 2.27273L45.4624 3.1034L45.4645 3.10478L46.0192 2.27273ZM50.0817 7.38636L49.1609 7.77651L49.1615 7.77792L50.0817 7.38636ZM51.4879 15.483L50.4879 15.48V15.483H51.4879ZM50.0675 23.6648L49.145 23.2788L49.1436 23.2821L50.0675 23.6648ZM46.0334 28.8494L46.5963 29.6759L46.0334 28.8494ZM43.7322 23.0256L44.5923 23.5358L43.7322 23.0256ZM45.2095 15.483H44.2095L44.2095 15.4858L45.2095 15.483ZM44.5277 9.97159L43.5707 10.2618L43.5725 10.2674L44.5277 9.97159ZM42.6243 6.66193L41.9525 7.40266L41.9567 7.4065L42.6243 6.66193ZM35.7635 8.03977L34.906 7.52528L35.7635 8.03977ZM34.2578 15.483L33.2578 15.4801V15.483H34.2578ZM34.9254 21.0795L33.9669 21.3647L33.9691 21.3719L34.9254 21.0795ZM36.843 24.4318L36.1708 25.1722L36.1755 25.1764L36.843 24.4318ZM39.7446 29.6392C37.4697 29.6304 35.5683 29.0732 33.9948 28.0073L32.8731 29.6631C34.8224 30.9836 37.1254 31.6291 39.7369 31.6392L39.7446 29.6392ZM33.9969 28.0087C32.4289 26.9408 31.1925 25.3781 30.3082 23.2646L28.4631 24.0366C29.4728 26.4496 30.9352 28.3433 32.871 29.6617L33.9969 28.0087ZM30.3095 23.2679C29.4353 21.1575 28.9844 18.5731 28.9936 15.4859L26.9936 15.48C26.9839 18.7564 27.461 21.6171 28.4618 24.0333L30.3095 23.2679ZM28.9936 15.483C28.9936 12.4044 29.4491 9.83984 30.322 7.75899L28.4777 6.98532C27.4756 9.37417 26.9936 12.2168 26.9936 15.483H28.9936ZM30.3206 7.76231C31.2032 5.67931 32.4369 4.14591 34.0018 3.10547L32.8945 1.43999C30.9556 2.72909 29.4904 4.59531 28.4791 6.98201L30.3206 7.76231ZM34.0029 3.10478C35.5764 2.05577 37.4741 1.51136 39.7408 1.51136V-0.488638C37.14 -0.488638 34.8427 0.141204 32.8935 1.44068L34.0029 3.10478ZM39.7408 1.51136C42.0076 1.51136 43.8995 2.0558 45.4624 3.10339L46.5759 1.44206C44.6351 0.141165 42.3414 -0.488638 39.7408 -0.488638V1.51136ZM45.4645 3.10478C47.0404 4.15539 48.2787 5.69446 49.1609 7.77651L51.0024 6.99621C49.9907 4.60857 48.5207 2.73854 46.5739 1.44068L45.4645 3.10478ZM49.1615 7.77792C50.0416 9.8462 50.4971 12.4029 50.4879 15.48L52.4879 15.4859C52.4977 12.2183 52.0157 9.37728 51.0018 6.99481L49.1615 7.77792ZM50.4879 15.483C50.4879 18.5797 50.0279 21.1686 49.145 23.2788L50.99 24.0508C52.001 21.6345 52.4879 18.7688 52.4879 15.483H50.4879ZM49.1436 23.2821C48.2687 25.3941 47.0375 26.9557 45.4705 28.0229L46.5963 29.6759C48.5331 28.3568 49.9912 26.4619 50.9913 24.0475L49.1436 23.2821ZM45.4705 28.0229C43.9088 29.0865 42.0147 29.6392 39.7408 29.6392V31.6392C42.3532 31.6392 44.6541 30.9987 46.5963 29.6759L45.4705 28.0229ZM39.7408 26.5398C41.826 26.5398 43.454 25.4547 44.5923 23.5358L42.8722 22.5154C42.0219 23.9488 40.9889 24.5398 39.7408 24.5398V26.5398ZM44.5923 23.5358C45.7233 21.6292 46.2192 18.8989 46.2095 15.4801L44.2095 15.4858C44.2188 18.7716 43.7298 21.0697 42.8722 22.5154L44.5923 23.5358ZM46.2095 15.483C46.2095 13.216 45.977 11.2711 45.4829 9.67577L43.5725 10.2674C43.9875 11.6077 44.2095 13.337 44.2095 15.483H46.2095ZM45.4847 9.68141C45.0061 8.10328 44.2948 6.81655 43.2918 5.91736L41.9567 7.4065C42.6015 7.98459 43.1591 8.90429 43.5707 10.2618L45.4847 9.68141ZM43.2961 5.92121C42.2962 5.0143 41.095 4.55398 39.7408 4.55398V6.55398C40.6025 6.55398 41.3236 6.83229 41.9525 7.40265L43.2961 5.92121ZM39.7408 4.55398C37.6684 4.55398 36.0455 5.62608 34.906 7.52528L36.621 8.55427C37.4701 7.13907 38.4988 6.55398 39.7408 6.55398V4.55398ZM34.906 7.52528C33.7744 9.41125 33.2675 12.1075 33.2578 15.4801L35.2578 15.4858C35.2671 12.2486 35.7639 9.98269 36.621 8.55427L34.906 7.52528ZM33.2578 15.483C33.2578 17.7764 33.4853 19.7455 33.9669 21.3647L35.8839 20.7944C35.4754 19.4212 35.2578 17.6592 35.2578 15.483H33.2578ZM33.9691 21.3719C34.4564 22.9657 35.1709 24.2642 36.1708 25.1721L37.5153 23.6915C36.8674 23.1032 36.3036 22.1669 35.8817 20.7872L33.9691 21.3719ZM36.1755 25.1764C37.1831 26.0797 38.3868 26.5398 39.7408 26.5398V24.5398C38.8788 24.5398 38.1507 24.2612 37.5106 23.6872L36.1755 25.1764ZM68.5298 0.90909H69.5298V-0.09091H68.5298V0.90909ZM68.5298 30V31H69.5298V30H68.5298ZM62.3793 30H61.3793V31H62.3793V30ZM62.3793 6.74716H63.3793V5.74716H62.3793V6.74716ZM62.2088 6.74716V5.74716H61.9213L61.6777 5.89987L62.2088 6.74716ZM55.5469 10.9233H54.5469V12.7304L56.078 11.7706L55.5469 10.9233ZM55.5469 5.46875L55.0119 4.62386L54.5469 4.91831V5.46875H55.5469ZM62.7486 0.90909V-0.09091H62.4586L62.2136 0.0641956L62.7486 0.90909ZM67.5298 0.90909V30H69.5298V0.90909H67.5298ZM68.5298 29H62.3793V31H68.5298V29ZM63.3793 30V6.74716H61.3793V30H63.3793ZM62.3793 5.74716H62.2088V7.74716H62.3793V5.74716ZM61.6777 5.89987L55.0157 10.076L56.078 11.7706L62.7399 7.59444L61.6777 5.89987ZM56.5469 10.9233V5.46875H54.5469V10.9233H56.5469ZM56.0818 6.31364L63.2835 1.75398L62.2136 0.0641956L55.0119 4.62386L56.0818 6.31364ZM62.7486 1.90909H68.5298V-0.09091H62.7486V1.90909Z" fill="white"/>
</svg>
