<svg width="77" height="31" viewBox="0 0 77 31" fill="none" xmlns="http://www.w3.org/2000/svg">
<path opacity="0.5" d="M13.4375 30L12.4507 29.8381L12.2601 31H13.4375V30ZM18.2102 0.90909V-0.09091H17.3609L17.2234 0.747192L18.2102 0.90909ZM22.7557 0.90909L23.7425 1.07099L23.9331 -0.09091H22.7557V0.90909ZM17.983 30V31H18.8323L18.9698 30.1619L17.983 30ZM0.411932 22.7841L-0.574628 22.6207L-0.767316 23.7841H0.411932V22.7841ZM1.16477 18.2386V17.2386H0.316775L0.178213 18.0752L1.16477 18.2386ZM23.892 18.2386L24.8786 18.402L25.0713 17.2386H23.892V18.2386ZM23.1392 22.7841V23.7841H23.9872L24.1258 22.9475L23.1392 22.7841ZM3.21023 30L2.22342 29.8381L2.0328 31H3.21023V30ZM7.98295 0.90909V-0.09091H7.13365L6.99615 0.747192L7.98295 0.90909ZM12.5284 0.90909L13.5152 1.07099L13.7058 -0.09091H12.5284V0.90909ZM7.75568 30V31H8.60499L8.74249 30.1619L7.75568 30ZM2.07386 12.6705L1.08781 12.5041L0.890975 13.6705H2.07386V12.6705ZM2.84091 8.125V7.125H1.99552L1.85485 7.9586L2.84091 8.125ZM25.5682 8.125L26.5542 8.2914L26.7511 7.125H25.5682V8.125ZM24.8011 12.6705V13.6705H25.6465L25.7872 12.8369L24.8011 12.6705ZM14.4243 30.1619L19.197 1.07099L17.2234 0.747192L12.4507 29.8381L14.4243 30.1619ZM18.2102 1.90909H22.7557V-0.09091H18.2102V1.90909ZM21.7689 0.747192L16.9961 29.8381L18.9698 30.1619L23.7425 1.07099L21.7689 0.747192ZM17.983 29H13.4375V31H17.983V29ZM1.39849 22.9475L2.15133 18.402L0.178213 18.0752L-0.574628 22.6207L1.39849 22.9475ZM1.16477 19.2386H23.892V17.2386H1.16477V19.2386ZM22.9055 18.0752L22.1526 22.6207L24.1258 22.9475L24.8786 18.402L22.9055 18.0752ZM23.1392 21.7841H0.411932V23.7841H23.1392V21.7841ZM4.19703 30.1619L8.96976 1.07099L6.99615 0.747192L2.22342 29.8381L4.19703 30.1619ZM7.98295 1.90909H12.5284V-0.09091H7.98295V1.90909ZM11.5416 0.747192L6.76887 29.8381L8.74249 30.1619L13.5152 1.07099L11.5416 0.747192ZM7.75568 29H3.21023V31H7.75568V29ZM3.05992 12.8369L3.82697 8.2914L1.85485 7.9586L1.08781 12.5041L3.05992 12.8369ZM2.84091 9.125H25.5682V7.125H2.84091V9.125ZM24.5821 7.9586L23.8151 12.5041L25.7872 12.8369L26.5542 8.2914L24.5821 7.9586ZM24.8011 11.6705H2.07386V13.6705H24.8011V11.6705ZM39.7408 30.6392L39.7369 31.6392H39.7408V30.6392ZM33.4339 28.8352L32.871 29.6617L32.8731 29.6631L33.4339 28.8352ZM29.3857 23.6506L28.4618 24.0333L28.4631 24.0366L29.3857 23.6506ZM27.9936 15.483L28.9936 15.4859V15.483H27.9936ZM29.3999 7.37216L28.4791 6.98201L28.4777 6.98532L29.3999 7.37216ZM33.4482 2.27273L34.0018 3.10547L34.0029 3.10478L33.4482 2.27273ZM46.0192 2.27273L45.4624 3.1034L45.4645 3.10478L46.0192 2.27273ZM50.0817 7.38636L49.1609 7.77651L49.1615 7.77792L50.0817 7.38636ZM51.4879 15.483L50.4879 15.48V15.483H51.4879ZM50.0675 23.6648L49.145 23.2788L49.1436 23.2821L50.0675 23.6648ZM46.0334 28.8494L46.5963 29.6759L46.0334 28.8494ZM43.7322 23.0256L44.5923 23.5358L43.7322 23.0256ZM45.2095 15.483H44.2095L44.2095 15.4858L45.2095 15.483ZM44.5277 9.97159L43.5707 10.2618L43.5725 10.2674L44.5277 9.97159ZM42.6243 6.66193L41.9525 7.40266L41.9567 7.4065L42.6243 6.66193ZM35.7635 8.03977L34.906 7.52528L35.7635 8.03977ZM34.2578 15.483L33.2578 15.4801V15.483H34.2578ZM34.9254 21.0795L33.9669 21.3647L33.9691 21.3719L34.9254 21.0795ZM36.843 24.4318L36.1708 25.1722L36.1755 25.1764L36.843 24.4318ZM39.7446 29.6392C37.4697 29.6304 35.5683 29.0732 33.9948 28.0073L32.8731 29.6631C34.8224 30.9836 37.1254 31.6291 39.7369 31.6392L39.7446 29.6392ZM33.9969 28.0087C32.4289 26.9408 31.1925 25.3781 30.3082 23.2646L28.4631 24.0366C29.4728 26.4496 30.9352 28.3433 32.871 29.6617L33.9969 28.0087ZM30.3095 23.2679C29.4353 21.1575 28.9844 18.5731 28.9936 15.4859L26.9936 15.48C26.9839 18.7564 27.461 21.6171 28.4618 24.0333L30.3095 23.2679ZM28.9936 15.483C28.9936 12.4044 29.4491 9.83984 30.322 7.75899L28.4777 6.98532C27.4756 9.37417 26.9936 12.2168 26.9936 15.483H28.9936ZM30.3206 7.76231C31.2032 5.67931 32.4369 4.14591 34.0018 3.10547L32.8945 1.43999C30.9556 2.72909 29.4904 4.59531 28.4791 6.98201L30.3206 7.76231ZM34.0029 3.10478C35.5764 2.05577 37.4741 1.51136 39.7408 1.51136V-0.488638C37.14 -0.488638 34.8427 0.141204 32.8935 1.44068L34.0029 3.10478ZM39.7408 1.51136C42.0076 1.51136 43.8995 2.0558 45.4624 3.10339L46.5759 1.44206C44.6351 0.141165 42.3414 -0.488638 39.7408 -0.488638V1.51136ZM45.4645 3.10478C47.0404 4.15539 48.2787 5.69446 49.1609 7.77651L51.0024 6.99621C49.9907 4.60857 48.5207 2.73854 46.5739 1.44068L45.4645 3.10478ZM49.1615 7.77792C50.0416 9.8462 50.4971 12.4029 50.4879 15.48L52.4879 15.4859C52.4977 12.2183 52.0157 9.37728 51.0018 6.99481L49.1615 7.77792ZM50.4879 15.483C50.4879 18.5797 50.0279 21.1686 49.145 23.2788L50.99 24.0508C52.001 21.6345 52.4879 18.7688 52.4879 15.483H50.4879ZM49.1436 23.2821C48.2687 25.3941 47.0375 26.9557 45.4705 28.0229L46.5963 29.6759C48.5331 28.3568 49.9912 26.4619 50.9913 24.0475L49.1436 23.2821ZM45.4705 28.0229C43.9088 29.0865 42.0147 29.6392 39.7408 29.6392V31.6392C42.3532 31.6392 44.6541 30.9987 46.5963 29.6759L45.4705 28.0229ZM39.7408 26.5398C41.826 26.5398 43.454 25.4547 44.5923 23.5358L42.8722 22.5154C42.0219 23.9488 40.9889 24.5398 39.7408 24.5398V26.5398ZM44.5923 23.5358C45.7233 21.6292 46.2192 18.8989 46.2095 15.4801L44.2095 15.4858C44.2188 18.7716 43.7298 21.0697 42.8722 22.5154L44.5923 23.5358ZM46.2095 15.483C46.2095 13.216 45.977 11.2711 45.4829 9.67577L43.5725 10.2674C43.9875 11.6077 44.2095 13.337 44.2095 15.483H46.2095ZM45.4847 9.68141C45.0061 8.10328 44.2948 6.81655 43.2918 5.91736L41.9567 7.4065C42.6015 7.98459 43.1591 8.90429 43.5707 10.2618L45.4847 9.68141ZM43.2961 5.92121C42.2962 5.0143 41.095 4.55398 39.7408 4.55398V6.55398C40.6025 6.55398 41.3236 6.83229 41.9525 7.40265L43.2961 5.92121ZM39.7408 4.55398C37.6684 4.55398 36.0455 5.62608 34.906 7.52528L36.621 8.55427C37.4701 7.13907 38.4988 6.55398 39.7408 6.55398V4.55398ZM34.906 7.52528C33.7744 9.41125 33.2675 12.1075 33.2578 15.4801L35.2578 15.4858C35.2671 12.2486 35.7639 9.98269 36.621 8.55427L34.906 7.52528ZM33.2578 15.483C33.2578 17.7764 33.4853 19.7455 33.9669 21.3647L35.8839 20.7944C35.4754 19.4212 35.2578 17.6592 35.2578 15.483H33.2578ZM33.9691 21.3719C34.4564 22.9657 35.1709 24.2642 36.1708 25.1721L37.5153 23.6915C36.8674 23.1032 36.3036 22.1669 35.8817 20.7872L33.9691 21.3719ZM36.1755 25.1764C37.1831 26.0797 38.3868 26.5398 39.7408 26.5398V24.5398C38.8788 24.5398 38.1507 24.2612 37.5106 23.6872L36.1755 25.1764ZM55.8736 30H54.8736V31H55.8736V30ZM55.8736 25.5682L55.1942 24.8344L54.8736 25.1313V25.5682H55.8736ZM66.2287 15.9801L66.9081 16.7139L66.9162 16.7064L66.9241 16.6987L66.2287 15.9801ZM68.4446 13.679L67.6972 13.0146L67.692 13.0205L68.4446 13.679ZM69.8224 11.6761L70.7246 12.1076L70.727 12.1026L69.8224 11.6761ZM69.7088 7.32954L68.8593 7.85724L68.863 7.86305L69.7088 7.32954ZM68.1179 5.89489L67.6656 6.78684L67.6757 6.79182L68.1179 5.89489ZM61.9673 7.47159L62.849 7.94347V7.94347L61.9673 7.47159ZM61.4276 9.87216V10.8722H62.4276V9.87216H61.4276ZM55.5895 9.87216H54.5895V10.8722H55.5895V9.87216ZM56.8821 4.91477L57.734 5.43855L56.8821 4.91477ZM60.5043 1.66193L60.0614 0.765326V0.765327L60.5043 1.66193ZM71.3139 1.61932L70.8823 2.52138L70.8889 2.52451L71.3139 1.61932ZM74.9361 4.65909L74.1031 5.21239V5.21239L74.9361 4.65909ZM75.5753 12.3722L74.6491 11.9951L74.6462 12.0022L75.5753 12.3722ZM73.2884 15.9375L74.0515 16.5837L74.0538 16.581L73.2884 15.9375ZM68.6435 20.6108L67.9704 19.8712L67.9568 19.8836L67.9436 19.8966L68.6435 20.6108ZM64.3963 24.7727L63.6964 24.0585L63.3963 24.3526V24.7727H64.3963ZM64.3963 24.9716H63.3963V25.9716H64.3963V24.9716ZM76.6122 24.9716H77.6122V23.9716H76.6122V24.9716ZM76.6122 30V31H77.6122V30H76.6122ZM56.8736 30V25.5682H54.8736V30H56.8736ZM56.553 26.3019L66.9081 16.7139L65.5493 15.2464L55.1942 24.8344L56.553 26.3019ZM66.9241 16.6987C67.8183 15.8334 68.5773 15.0459 69.1972 14.3375L67.692 13.0205C67.1187 13.6757 66.4005 14.4223 65.5333 15.2615L66.9241 16.6987ZM69.192 14.3433C69.845 13.6088 70.3628 12.8641 70.7246 12.1076L68.9203 11.2447C68.6571 11.795 68.2564 12.3855 67.6972 13.0146L69.192 14.3433ZM70.727 12.1026C71.1053 11.3001 71.2912 10.4387 71.2912 9.53125H69.2912C69.2912 10.1579 69.1646 10.7264 68.9179 11.2497L70.727 12.1026ZM71.2912 9.53125C71.2912 8.523 71.0598 7.59696 70.5546 6.79604L68.863 7.86305C69.1343 8.29319 69.2912 8.83495 69.2912 9.53125H71.2912ZM70.5583 6.80186C70.0695 6.01502 69.3967 5.41036 68.5601 4.99795L67.6757 6.79182C68.1838 7.04229 68.5716 7.39407 68.8594 7.85723L70.5583 6.80186ZM68.5701 5.00298C67.7403 4.58221 66.8197 4.38352 65.831 4.38352V6.38352C66.5468 6.38352 67.1508 6.52575 67.6657 6.78679L68.5701 5.00298ZM65.831 4.38352C64.8042 4.38352 63.858 4.59189 63.0243 5.04444L63.9785 6.80215C64.4706 6.535 65.0774 6.38352 65.831 6.38352V4.38352ZM63.0243 5.04444C62.1877 5.4986 61.5366 6.15712 61.0857 6.99971L62.849 7.94347C63.1177 7.44136 63.4894 7.06769 63.9785 6.80215L63.0243 5.04444ZM61.0857 6.99971C60.633 7.84549 60.4276 8.81487 60.4276 9.87216H62.4276C62.4276 9.07339 62.582 8.44238 62.849 7.94347L61.0857 6.99971ZM61.4276 8.87216H55.5895V10.8722H61.4276V8.87216ZM56.5895 9.87216C56.5895 8.12414 56.9835 6.65913 57.734 5.43855L56.0302 4.391C55.0573 5.97344 54.5895 7.81336 54.5895 9.87216H56.5895ZM57.734 5.43855C58.4918 4.20596 59.5534 3.24687 60.9471 2.55853L60.0614 0.765327C58.349 1.61108 56.9959 2.82056 56.0302 4.391L57.734 5.43855ZM60.9471 2.55853C62.3408 1.87016 63.9746 1.51136 65.8736 1.51136V-0.488638C63.7195 -0.488638 61.7737 -0.0803871 60.0614 0.765326L60.9471 2.55853ZM65.8736 1.51136C67.8394 1.51136 69.4996 1.8597 70.8823 2.52136L71.7456 0.717277C70.0412 -0.0983343 68.0744 -0.488638 65.8736 -0.488638V1.51136ZM70.8889 2.52451C72.2937 3.18406 73.3527 4.08267 74.1031 5.21239L75.7691 4.10579C74.796 2.64081 73.4402 1.51291 71.7389 0.714124L70.8889 2.52451ZM74.1031 5.21239C74.8475 6.33315 75.2287 7.62432 75.2287 9.11932H77.2287C77.2287 7.26204 76.7481 5.57973 75.7691 4.10579L74.1031 5.21239ZM75.2287 9.11932C75.2287 10.0819 75.0385 11.0385 74.6491 11.9951L76.5015 12.7492C76.9833 11.5657 77.2287 10.3537 77.2287 9.11932H75.2287ZM74.6462 12.0022C74.2738 12.9374 73.5824 14.0335 72.5229 15.294L74.0538 16.581C75.1912 15.2278 76.0245 13.947 76.5043 12.7421L74.6462 12.0022ZM72.5252 15.2913C71.466 16.5422 69.9528 18.0673 67.9704 19.8712L69.3165 21.3504C71.3303 19.5179 72.9137 17.9275 74.0515 16.5837L72.5252 15.2913ZM67.9436 19.8966L63.6964 24.0585L65.0962 25.487L69.3434 21.325L67.9436 19.8966ZM63.3963 24.7727V24.9716H65.3963V24.7727H63.3963ZM64.3963 25.9716H76.6122V23.9716H64.3963V25.9716ZM75.6122 24.9716V30H77.6122V24.9716H75.6122ZM76.6122 29H55.8736V31H76.6122V29Z" fill="white"/>
</svg>
