<svg width="78" height="31" viewBox="0 0 78 31" fill="none" xmlns="http://www.w3.org/2000/svg">
<path opacity="0.5" d="M13.4375 30L12.4507 29.8381L12.2601 31H13.4375V30ZM18.2102 0.90909V-0.09091H17.3609L17.2234 0.747192L18.2102 0.90909ZM22.7557 0.90909L23.7425 1.07099L23.9331 -0.09091H22.7557V0.90909ZM17.983 30V31H18.8323L18.9698 30.1619L17.983 30ZM0.411932 22.7841L-0.574628 22.6207L-0.767316 23.7841H0.411932V22.7841ZM1.16477 18.2386V17.2386H0.316775L0.178213 18.0752L1.16477 18.2386ZM23.892 18.2386L24.8786 18.402L25.0713 17.2386H23.892V18.2386ZM23.1392 22.7841V23.7841H23.9872L24.1258 22.9475L23.1392 22.7841ZM3.21023 30L2.22342 29.8381L2.0328 31H3.21023V30ZM7.98295 0.90909V-0.09091H7.13365L6.99615 0.747192L7.98295 0.90909ZM12.5284 0.90909L13.5152 1.07099L13.7058 -0.09091H12.5284V0.90909ZM7.75568 30V31H8.60499L8.74249 30.1619L7.75568 30ZM2.07386 12.6705L1.08781 12.5041L0.890975 13.6705H2.07386V12.6705ZM2.84091 8.125V7.125H1.99552L1.85485 7.9586L2.84091 8.125ZM25.5682 8.125L26.5542 8.2914L26.7511 7.125H25.5682V8.125ZM24.8011 12.6705V13.6705H25.6465L25.7872 12.8369L24.8011 12.6705ZM14.4243 30.1619L19.197 1.07099L17.2234 0.747192L12.4507 29.8381L14.4243 30.1619ZM18.2102 1.90909H22.7557V-0.09091H18.2102V1.90909ZM21.7689 0.747192L16.9961 29.8381L18.9698 30.1619L23.7425 1.07099L21.7689 0.747192ZM17.983 29H13.4375V31H17.983V29ZM1.39849 22.9475L2.15133 18.402L0.178213 18.0752L-0.574628 22.6207L1.39849 22.9475ZM1.16477 19.2386H23.892V17.2386H1.16477V19.2386ZM22.9055 18.0752L22.1526 22.6207L24.1258 22.9475L24.8786 18.402L22.9055 18.0752ZM23.1392 21.7841H0.411932V23.7841H23.1392V21.7841ZM4.19703 30.1619L8.96976 1.07099L6.99615 0.747192L2.22342 29.8381L4.19703 30.1619ZM7.98295 1.90909H12.5284V-0.09091H7.98295V1.90909ZM11.5416 0.747192L6.76887 29.8381L8.74249 30.1619L13.5152 1.07099L11.5416 0.747192ZM7.75568 29H3.21023V31H7.75568V29ZM3.05992 12.8369L3.82697 8.2914L1.85485 7.9586L1.08781 12.5041L3.05992 12.8369ZM2.84091 9.125H25.5682V7.125H2.84091V9.125ZM24.5821 7.9586L23.8151 12.5041L25.7872 12.8369L26.5542 8.2914L24.5821 7.9586ZM24.8011 11.6705H2.07386V13.6705H24.8011V11.6705ZM39.7408 30.6392L39.7369 31.6392H39.7408V30.6392ZM33.4339 28.8352L32.871 29.6617L32.8731 29.6631L33.4339 28.8352ZM29.3857 23.6506L28.4618 24.0333L28.4631 24.0366L29.3857 23.6506ZM27.9936 15.483L28.9936 15.4859V15.483H27.9936ZM29.3999 7.37216L28.4791 6.98201L28.4777 6.98532L29.3999 7.37216ZM33.4482 2.27273L34.0018 3.10547L34.0029 3.10478L33.4482 2.27273ZM46.0192 2.27273L45.4624 3.1034L45.4645 3.10478L46.0192 2.27273ZM50.0817 7.38636L49.1609 7.77651L49.1615 7.77792L50.0817 7.38636ZM51.4879 15.483L50.4879 15.48V15.483H51.4879ZM50.0675 23.6648L49.145 23.2788L49.1436 23.2821L50.0675 23.6648ZM46.0334 28.8494L46.5963 29.6759L46.0334 28.8494ZM43.7322 23.0256L44.5923 23.5358L43.7322 23.0256ZM45.2095 15.483H44.2095L44.2095 15.4858L45.2095 15.483ZM44.5277 9.97159L43.5707 10.2618L43.5725 10.2674L44.5277 9.97159ZM42.6243 6.66193L41.9525 7.40266L41.9567 7.4065L42.6243 6.66193ZM35.7635 8.03977L34.906 7.52528L35.7635 8.03977ZM34.2578 15.483L33.2578 15.4801V15.483H34.2578ZM34.9254 21.0795L33.9669 21.3647L33.9691 21.3719L34.9254 21.0795ZM36.843 24.4318L36.1708 25.1722L36.1755 25.1764L36.843 24.4318ZM39.7446 29.6392C37.4697 29.6304 35.5683 29.0732 33.9948 28.0073L32.8731 29.6631C34.8224 30.9836 37.1254 31.6291 39.7369 31.6392L39.7446 29.6392ZM33.9969 28.0087C32.4289 26.9408 31.1925 25.3781 30.3082 23.2646L28.4631 24.0366C29.4728 26.4496 30.9352 28.3433 32.871 29.6617L33.9969 28.0087ZM30.3095 23.2679C29.4353 21.1575 28.9844 18.5731 28.9936 15.4859L26.9936 15.48C26.9839 18.7564 27.461 21.6171 28.4618 24.0333L30.3095 23.2679ZM28.9936 15.483C28.9936 12.4044 29.4491 9.83984 30.322 7.75899L28.4777 6.98532C27.4756 9.37417 26.9936 12.2168 26.9936 15.483H28.9936ZM30.3206 7.76231C31.2032 5.67931 32.4369 4.14591 34.0018 3.10547L32.8945 1.43999C30.9556 2.72909 29.4904 4.59531 28.4791 6.98201L30.3206 7.76231ZM34.0029 3.10478C35.5764 2.05577 37.4741 1.51136 39.7408 1.51136V-0.488638C37.14 -0.488638 34.8427 0.141204 32.8935 1.44068L34.0029 3.10478ZM39.7408 1.51136C42.0076 1.51136 43.8995 2.0558 45.4624 3.10339L46.5759 1.44206C44.6351 0.141165 42.3414 -0.488638 39.7408 -0.488638V1.51136ZM45.4645 3.10478C47.0404 4.15539 48.2787 5.69446 49.1609 7.77651L51.0024 6.99621C49.9907 4.60857 48.5207 2.73854 46.5739 1.44068L45.4645 3.10478ZM49.1615 7.77792C50.0416 9.8462 50.4971 12.4029 50.4879 15.48L52.4879 15.4859C52.4977 12.2183 52.0157 9.37728 51.0018 6.99481L49.1615 7.77792ZM50.4879 15.483C50.4879 18.5797 50.0279 21.1686 49.145 23.2788L50.99 24.0508C52.001 21.6345 52.4879 18.7688 52.4879 15.483H50.4879ZM49.1436 23.2821C48.2687 25.3941 47.0375 26.9557 45.4705 28.0229L46.5963 29.6759C48.5331 28.3568 49.9912 26.4619 50.9913 24.0475L49.1436 23.2821ZM45.4705 28.0229C43.9088 29.0865 42.0147 29.6392 39.7408 29.6392V31.6392C42.3532 31.6392 44.6541 30.9987 46.5963 29.6759L45.4705 28.0229ZM39.7408 26.5398C41.826 26.5398 43.454 25.4547 44.5923 23.5358L42.8722 22.5154C42.0219 23.9488 40.9889 24.5398 39.7408 24.5398V26.5398ZM44.5923 23.5358C45.7233 21.6292 46.2192 18.8989 46.2095 15.4801L44.2095 15.4858C44.2188 18.7716 43.7298 21.0697 42.8722 22.5154L44.5923 23.5358ZM46.2095 15.483C46.2095 13.216 45.977 11.2711 45.4829 9.67577L43.5725 10.2674C43.9875 11.6077 44.2095 13.337 44.2095 15.483H46.2095ZM45.4847 9.68141C45.0061 8.10328 44.2948 6.81655 43.2918 5.91736L41.9567 7.4065C42.6015 7.98459 43.1591 8.90429 43.5707 10.2618L45.4847 9.68141ZM43.2961 5.92121C42.2962 5.0143 41.095 4.55398 39.7408 4.55398V6.55398C40.6025 6.55398 41.3236 6.83229 41.9525 7.40265L43.2961 5.92121ZM39.7408 4.55398C37.6684 4.55398 36.0455 5.62608 34.906 7.52528L36.621 8.55427C37.4701 7.13907 38.4988 6.55398 39.7408 6.55398V4.55398ZM34.906 7.52528C33.7744 9.41125 33.2675 12.1075 33.2578 15.4801L35.2578 15.4858C35.2671 12.2486 35.7639 9.98269 36.621 8.55427L34.906 7.52528ZM33.2578 15.483C33.2578 17.7764 33.4853 19.7455 33.9669 21.3647L35.8839 20.7944C35.4754 19.4212 35.2578 17.6592 35.2578 15.483H33.2578ZM33.9691 21.3719C34.4564 22.9657 35.1709 24.2642 36.1708 25.1721L37.5153 23.6915C36.8674 23.1032 36.3036 22.1669 35.8817 20.7872L33.9691 21.3719ZM36.1755 25.1764C37.1831 26.0797 38.3868 26.5398 39.7408 26.5398V24.5398C38.8788 24.5398 38.1507 24.2612 37.5106 23.6872L36.1755 25.1764ZM60.9588 29.304L60.5497 30.2165L60.5561 30.2193L60.9588 29.304ZM57.0526 26.2642L56.2448 26.8538L56.2497 26.8604L57.0526 26.2642ZM55.5895 21.7756V20.7756H54.5726L54.5896 21.7923L55.5895 21.7756ZM61.7827 21.7756L62.7812 21.7223L62.7308 20.7756H61.7827V21.7756ZM62.4787 23.6506L61.6938 24.2702L61.6998 24.2778L61.706 24.2853L62.4787 23.6506ZM64.2116 24.8864L63.834 25.8123H63.834L64.2116 24.8864ZM69.1264 24.8295L68.7081 23.9212L69.1264 24.8295ZM70.8168 23.4517L71.6385 24.0216H71.6385L70.8168 23.4517ZM70.7741 19.3608L69.9561 19.936L69.9613 19.9433L69.9665 19.9505L70.7741 19.3608ZM68.9276 17.9403L68.5336 18.8595L68.5376 18.8612L68.9276 17.9403ZM63.3736 17.429H62.3736V18.429H63.3736V17.429ZM63.3736 12.9119V11.9119H62.3736V12.9119H63.3736ZM68.544 12.429L68.1357 11.5161L68.1311 11.5182L68.544 12.429ZM70.2202 11.0938L71.0394 11.6672L71.0438 11.6609L70.2202 11.0938ZM70.2912 7.15909L69.4376 7.67995L69.4428 7.68848L69.4481 7.69691L70.2912 7.15909ZM68.8423 5.85227L68.3896 6.74396L68.3951 6.7467L68.8423 5.85227ZM64.3963 5.83807L64.7872 6.75857L64.7978 6.75394L64.3963 5.83807ZM62.7344 7.10227L63.5311 7.70666L62.7344 7.10227ZM62.0668 9.03409V10.0341H63.029L63.066 9.07252L62.0668 9.03409ZM56.1719 9.03409L55.172 9.01714L55.1548 10.0341H56.1719V9.03409ZM57.6065 4.60227L58.4158 5.18973L58.4158 5.18973L57.6065 4.60227ZM61.3565 1.60511L61.7728 2.51435L61.7752 2.51323L61.3565 1.60511ZM71.9815 1.60511L72.4174 0.705096L71.9815 1.60511ZM75.4901 4.55966L74.6599 5.1173L74.6649 5.12457L75.4901 4.55966ZM76.7401 8.70739L75.74 8.70121L75.7401 8.7132L76.7401 8.70739ZM75.2202 12.7841L74.4912 12.0995L74.4881 12.1029L75.2202 12.7841ZM71.2571 14.858L71.0797 13.8738L70.2571 14.0221V14.858H71.2571ZM71.2571 15.0852H70.2571V15.9651L71.1298 16.0771L71.2571 15.0852ZM76.1435 17.3153L75.4082 17.9932L75.4137 17.9991L76.1435 17.3153ZM77.8196 21.8324L76.8196 21.8272L76.8196 21.8381L77.8196 21.8324ZM76.3849 26.25L75.5849 25.65L75.5821 25.6538L76.3849 26.25ZM72.4219 29.2898L72.0205 28.3739L72.4219 29.2898ZM66.6264 29.3977C64.6203 29.3977 62.8719 29.0532 61.3615 28.3887L60.5561 30.2193C62.3601 31.0131 64.3901 31.3977 66.6264 31.3977V29.3977ZM61.3679 28.3915C59.8563 27.7139 58.6975 26.8019 57.8554 25.668L56.2497 26.8604C57.3205 28.3022 58.7658 29.4168 60.5498 30.2165L61.3679 28.3915ZM57.8603 25.6746C57.0418 24.5534 56.6145 23.2598 56.5893 21.7588L54.5896 21.7923C54.6213 23.6815 55.1693 25.3803 56.2448 26.8538L57.8603 25.6746ZM55.5895 22.7756H61.7827V20.7756H55.5895V22.7756ZM60.7841 21.8288C60.8326 22.7379 61.135 23.5624 61.6938 24.2702L63.2636 23.0309C62.9701 22.6591 62.8085 22.2337 62.7812 21.7223L60.7841 21.8288ZM61.706 24.2853C62.2603 24.9602 62.9811 25.4644 63.834 25.8123L64.5893 23.9604C64.0028 23.7212 63.5683 23.4016 63.2514 23.0158L61.706 24.2853ZM63.834 25.8123C64.6909 26.1618 65.6317 26.3267 66.6406 26.3267V24.3267C65.8504 24.3267 65.1718 24.198 64.5893 23.9604L63.834 25.8123ZM66.6406 26.3267C67.6964 26.3267 68.672 26.1398 69.5447 25.7379L68.7081 23.9212C68.1414 24.1822 67.4599 24.3267 66.6406 24.3267V26.3267ZM69.5447 25.7379C70.4086 25.34 71.1186 24.7711 71.6385 24.0216L69.995 22.8818C69.7005 23.3065 69.2837 23.6562 68.7081 23.9212L69.5447 25.7379ZM71.6385 24.0216C72.1704 23.2546 72.4276 22.3754 72.4276 21.4205H70.4276C70.4276 21.9996 70.2775 22.4746 69.995 22.8818L71.6385 24.0216ZM72.4276 21.4205C72.4276 20.4435 72.149 19.548 71.5818 18.7711L69.9665 19.9505C70.2705 20.3668 70.4276 20.8444 70.4276 21.4205H72.4276ZM71.5922 18.7856C71.0404 18.0009 70.2633 17.4201 69.3176 17.0195L68.5376 18.8612C69.2017 19.1424 69.6556 19.5086 69.9561 19.936L71.5922 18.7856ZM69.3215 17.0212C68.3729 16.6147 67.2854 16.429 66.0866 16.429V18.429C67.0848 18.429 67.8913 18.5842 68.5336 18.8595L69.3215 17.0212ZM66.0866 16.429H63.3736V18.429H66.0866V16.429ZM64.3736 17.429V12.9119H62.3736V17.429H64.3736ZM63.3736 13.9119H66.0866V11.9119H63.3736V13.9119ZM66.0866 13.9119C67.1304 13.9119 68.0947 13.7306 68.9569 13.3398L68.1311 11.5182C67.5729 11.7713 66.899 11.9119 66.0866 11.9119V13.9119ZM68.9524 13.3418C69.8142 12.9563 70.5243 12.403 71.0394 11.6672L69.4009 10.5203C69.1205 10.9209 68.7133 11.2577 68.1357 11.5162L68.9524 13.3418ZM71.0438 11.6609C71.5672 10.9007 71.8168 10.0264 71.8168 9.07671H69.8168C69.8168 9.66108 69.6686 10.1315 69.3965 10.5266L71.0438 11.6609ZM71.8168 9.07671C71.8168 8.18042 71.599 7.34986 71.1343 6.62127L69.4481 7.69691C69.6841 8.06681 69.8168 8.51466 69.8168 9.07671H71.8168ZM71.1448 6.63822C70.6995 5.90838 70.0705 5.34834 69.2895 4.95785L68.3951 6.7467C68.8641 6.9812 69.2011 7.29237 69.4376 7.67995L71.1448 6.63822ZM69.295 4.96061C68.5146 4.56437 67.6342 4.38352 66.6832 4.38352V6.38352C67.38 6.38352 67.939 6.51517 68.3896 6.74394L69.295 4.96061ZM66.6832 4.38352C65.7262 4.38352 64.8253 4.55816 63.9948 4.9222L64.7978 6.75394C65.3499 6.51192 65.9736 6.38352 66.6832 6.38352V4.38352ZM64.0054 4.91762C63.1684 5.27308 62.469 5.79746 61.9377 6.49789L63.5311 7.70666C63.833 7.3086 64.2416 6.99018 64.7872 6.75851L64.0054 4.91762ZM61.9377 6.49789C61.3879 7.22256 61.1032 8.06767 61.0675 8.99566L63.066 9.07252C63.0872 8.52324 63.2475 8.08047 63.5311 7.70666L61.9377 6.49789ZM62.0668 8.03409H56.1719V10.0341H62.0668V8.03409ZM57.1717 9.05104C57.1969 7.56685 57.6159 6.2916 58.4158 5.18973L56.7973 4.01481C55.7411 5.46976 55.2037 7.14906 55.172 9.01714L57.1717 9.05104ZM58.4158 5.18973C59.2333 4.06352 60.3422 3.16934 61.7728 2.51435L60.9403 0.695875C59.227 1.48028 57.8358 2.58421 56.7973 4.01481L58.4158 5.18973ZM61.7752 2.51323C63.208 1.85263 64.8471 1.51136 66.7116 1.51136V-0.488638C64.5989 -0.488638 62.668 -0.100742 60.9378 0.696994L61.7752 2.51323ZM66.7116 1.51136C68.5981 1.51136 70.2004 1.85363 71.5457 2.50513L72.4174 0.705096C70.7513 -0.101739 68.8404 -0.488638 66.7116 -0.488638V1.51136ZM71.5457 2.50513C72.9114 3.16653 73.9368 4.04076 74.66 5.11728L76.3202 4.00204C75.3766 2.59749 74.063 1.50203 72.4174 0.705096L71.5457 2.50513ZM74.6649 5.12457C75.3892 6.18253 75.7483 7.36471 75.7401 8.70121L77.74 8.71356C77.7507 6.98188 77.2765 5.39891 76.3152 3.99475L74.6649 5.12457ZM75.7401 8.7132C75.7482 10.1109 75.3219 11.215 74.4912 12.0995L75.9491 13.4687C77.1639 12.1751 77.7509 10.5614 77.74 8.70157L75.7401 8.7132ZM74.4881 12.1029C73.6386 13.0158 72.5209 13.6141 71.0797 13.8738L71.4345 15.8421C73.2509 15.5147 74.7752 14.7304 75.9523 13.4653L74.4881 12.1029ZM70.2571 14.858V15.0852H72.2571V14.858H70.2571ZM71.1298 16.0771C73.1097 16.3312 74.4939 17.0013 75.4082 17.9931L76.8787 16.6375C75.5582 15.2051 73.6848 14.3885 71.3844 14.0934L71.1298 16.0771ZM75.4137 17.9991C76.348 18.9962 76.8279 20.247 76.8196 21.8272L78.8196 21.8376C78.8303 19.8003 78.1927 18.0398 76.8732 16.6316L75.4137 17.9991ZM76.8196 21.8381C76.8279 23.2839 76.4158 24.5422 75.5849 25.65L77.1849 26.85C78.2859 25.382 78.8303 23.6953 78.8196 21.8267L76.8196 21.8381ZM75.5821 25.6538C74.7439 26.7825 73.5705 27.6946 72.0205 28.3739L72.8232 30.2057C74.6444 29.4076 76.1131 28.2932 77.1878 26.8462L75.5821 25.6538ZM72.0205 28.3739C70.4825 29.0478 68.6913 29.3977 66.6264 29.3977V31.3977C68.9176 31.3977 70.99 31.009 72.8232 30.2057L72.0205 28.3739Z" fill="white"/>
</svg>
