<svg width="20" height="20" viewBox="0 0 20 20" fill="none" xmlns="http://www.w3.org/2000/svg">
<path d="M19 0C19.552 0 20 0.448 20 1V15C20 15.552 19.552 16 19 16H4.455L0 19.5V1C0 0.448 0.448 0 1 0H19ZM8.962 5.1L8.515 4.412C6.728 5.187 5.5 6.755 5.5 8.505C5.5 9.5 5.777 10.114 6.292 10.661C6.616 11.005 7.129 11.25 7.666 11.25C8.632 11.25 9.416 10.466 9.416 9.5C9.416 8.58 8.705 7.839 7.802 7.755C7.642 7.74 7.478 7.743 7.323 7.765V7.673C7.329 7.251 7.415 6.04 8.777 5.207L8.962 5.1ZM13.515 4.412C11.728 5.187 10.5 6.755 10.5 8.505C10.5 9.5 10.777 10.114 11.292 10.661C11.616 11.005 12.129 11.25 12.666 11.25C13.632 11.25 14.416 10.466 14.416 9.5C14.416 8.58 13.705 7.839 12.802 7.755C12.642 7.74 12.478 7.743 12.323 7.765C12.323 7.452 12.294 6.003 13.962 5.1L13.515 4.412Z" fill="white"/>
</svg>
