<svg width="65" height="70" viewBox="0 0 65 70" fill="none" xmlns="http://www.w3.org/2000/svg">
<path d="M32.5 13.8706C31.1072 13.8706 30.1786 12.942 30.1786 11.5491V6.90627C30.1786 5.51341 31.1072 4.58484 32.5 4.58484C33.8929 4.58484 34.8214 5.51341 34.8214 6.90627V11.5491C34.8214 12.942 33.8929 13.8706 32.5 13.8706Z" fill="#6B8FED"/>
<path d="M26.6964 69.5848C22.2857 69.5848 18.5714 65.8705 18.5714 61.4598C18.5714 60.067 19.5 59.1384 20.8928 59.1384C22.2857 59.1384 23.2143 60.067 23.2143 61.4598C23.2143 63.317 24.8393 64.942 26.6964 64.942C28.5536 64.942 30.1786 63.317 30.1786 61.4598V41.7277C30.1786 40.3348 31.1071 39.4062 32.5 39.4062C33.8928 39.4062 34.8214 40.3348 34.8214 41.7277V61.4598C34.8214 65.8705 31.1071 69.5848 26.6964 69.5848Z" fill="#6B8FED"/>
<path d="M51.0714 32.442C44.5714 32.442 39.4642 27.3348 39.4642 20.8348C39.4642 15.2634 47.5892 3.19196 49.2142 0.870536C50.1428 -0.290179 52.2321 -0.290179 52.9285 0.870536C54.5535 3.19196 62.6785 15.2634 62.6785 20.8348C62.6785 27.3348 57.5714 32.442 51.0714 32.442Z" fill="#6B8FED"/>
<path d="M51.0714 37.0848C42.0179 37.0848 34.8214 29.8884 34.8214 20.8348C34.8214 17.8169 36.4464 13.8705 38.3036 9.69195C36.4464 9.4598 34.5893 9.22766 32.5 9.22766C14.625 9.22766 0 23.8527 0 41.7277C0 43.1205 0.928571 44.0491 2.32143 44.0491H62.6786C64.0714 44.0491 65 43.1205 65 41.7277C65 38.2455 64.5357 34.7634 63.375 31.5134C60.3571 34.9955 55.9464 37.0848 51.0714 37.0848Z" fill="#6B8FED"/>
</svg>
