<svg width="50" height="68" viewBox="0 0 50 68" fill="none" xmlns="http://www.w3.org/2000/svg">
<path d="M27.7402 16.7896L33.3444 22.4118L27.7436 28.0294L27.7402 16.7896ZM27.7402 51.2058L33.3444 45.5847L27.7436 39.966L27.7402 51.2058ZM21.7567 33.9977L9.64174 21.8128L13.1533 18.2912L22.8042 27.9777V4.76451L40.356 22.3716L28.7671 33.9977L40.3583 45.6273L22.8053 63.2343V40.02L13.1521 49.7077L9.6406 46.1838L21.7567 33.9977ZM25.0023 68C39.8024 68 50 60.9464 50 33.9989C50 7.05248 39.8024 0 25.0023 0C10.2033 0 0 7.05363 0 33.9989C0 60.9464 10.2022 68 25.0023 68Z" fill="#6B8FED"/>
</svg>
