<svg width="42" height="70" viewBox="0 0 42 70" fill="none" xmlns="http://www.w3.org/2000/svg">
<path fill-rule="evenodd" clip-rule="evenodd" d="M36.414 8.4H29.4V4.2C29.4 1.89 27.51 0 25.2 0H16.8C14.49 0 12.6 1.89 12.6 4.2V8.4H5.586C2.52 8.4 0 10.92 0 13.986V64.372C0 67.48 2.52 70 5.628 70H36.372C39.48 70 42 67.48 42 64.414V13.986C42 10.92 39.48 8.4 36.414 8.4ZM31.962 39.0413L20.748 60.0413C19.74 61.9313 16.8 61.2173 16.8 59.0333V44.3333H11.886C10.29 44.3333 9.282 42.6533 10.038 41.2253L21.252 20.2253C22.26 18.3353 25.2 19.0493 25.2 21.2333V35.9333H30.114C31.668 35.9333 32.718 37.6133 31.962 39.0413Z" fill="#6B8FED"/>
</svg>
