<svg width="72" height="92" viewBox="0 0 72 92" fill="none" xmlns="http://www.w3.org/2000/svg">
<mask id="mask0_332_10" style="mask-type:alpha" maskUnits="userSpaceOnUse" x="0" y="0" width="72" height="92">
<path d="M0.5 91.5V0H72V91.5H0.5Z" fill="#D9D9D9"/>
</mask>
<g mask="url(#mask0_332_10)">
<path d="M60.8722 83H8.03125V70.3224H60.8722V83ZM46.8097 54.0582H7.85369V41.9489H46.8097V54.0582ZM30.4034 30.8338L31.5398 61.054C31.6581 64.2973 31.0071 67.008 29.5866 69.1861C28.1899 71.3404 25.7751 73.1752 22.3423 74.6903L12.6832 70.3224C13.7249 70.1094 14.5062 69.5767 15.027 68.7244C15.5715 67.8485 15.9266 66.8068 16.0923 65.5994C16.2817 64.392 16.3646 63.161 16.3409 61.9062L15.2756 30.8338C15.0862 26.2173 15.974 22.3111 17.9389 19.1151C19.9276 15.8954 22.6738 13.4569 26.1776 11.7997C29.6813 10.1188 33.6349 9.27841 38.0384 9.27841C41.7552 9.27841 45.0578 9.79924 47.946 10.8409C50.8343 11.8589 53.2727 13.3149 55.2614 15.2088C57.2737 17.0791 58.7652 19.2926 59.7358 21.8494C60.7064 24.4062 61.1326 27.2116 61.0142 30.2656L46.6321 29.875C46.6795 27.8627 46.3243 26.2528 45.5668 25.0455C44.8092 23.8381 43.7912 22.9621 42.5128 22.4176C41.2344 21.8731 39.8258 21.6009 38.2869 21.6009C36.7955 21.6009 35.446 21.9441 34.2386 22.6307C33.0549 23.2936 32.108 24.3116 31.3977 25.6847C30.7112 27.0341 30.3797 28.7505 30.4034 30.8338ZM33.777 204.994C28.474 204.994 23.7509 204.083 19.608 202.26C15.4886 200.413 12.2334 197.88 9.84233 194.661C7.47491 191.417 6.25568 187.677 6.18466 183.439H21.6676C21.7623 185.214 22.3423 186.777 23.4077 188.126C24.4967 189.452 25.9408 190.482 27.7401 191.216C29.5393 191.95 31.5634 192.317 33.8125 192.317C36.1562 192.317 38.2277 191.902 40.027 191.074C41.8262 190.245 43.2348 189.097 44.2528 187.629C45.2708 186.161 45.7798 184.469 45.7798 182.551C45.7798 180.61 45.2353 178.893 44.1463 177.402C43.081 175.887 41.5421 174.703 39.5298 173.851C37.5412 172.999 35.1738 172.572 32.4276 172.572H25.6449V161.28H32.4276C34.7476 161.28 36.7955 160.877 38.571 160.072C40.3703 159.268 41.767 158.155 42.7614 156.734C43.7557 155.29 44.2528 153.609 44.2528 151.692C44.2528 149.869 43.8149 148.271 42.9389 146.898C42.0866 145.501 40.8793 144.412 39.3168 143.631C37.7779 142.849 35.9787 142.459 33.919 142.459C31.8357 142.459 29.9299 142.838 28.2017 143.595C26.4735 144.329 25.0885 145.383 24.0469 146.756C23.0052 148.129 22.4489 149.739 22.3778 151.585H7.64062C7.71165 147.395 8.9072 143.702 11.2273 140.506C13.5473 137.31 16.6723 134.812 20.6023 133.013C24.5559 131.19 29.0185 130.278 33.9901 130.278C39.009 130.278 43.4006 131.19 47.1648 133.013C50.929 134.836 53.8527 137.298 55.9361 140.399C58.0431 143.477 59.0848 146.933 59.0611 150.768C59.0848 154.84 57.8182 158.238 55.2614 160.96C52.7282 163.683 49.4257 165.411 45.3537 166.145V166.713C50.7041 167.4 54.776 169.258 57.5696 172.288C60.3868 175.295 61.7836 179.059 61.7599 183.581C61.7836 187.724 60.5881 191.405 58.1733 194.625C55.7822 197.845 52.4796 200.378 48.2656 202.224C44.0516 204.071 39.2221 204.994 33.777 204.994Z" fill="#6B8FED"/>
</g>
</svg>
