<svg width="115" height="128" viewBox="0 0 115 128" fill="none" xmlns="http://www.w3.org/2000/svg">
<path d="M114.165 30.306L107.331 97.7519C107.317 98.1182 107.28 98.4831 107.22 98.8447C105.828 104.285 98.4045 107.907 89.8362 107.039C80.6994 106.113 73.8477 100.451 74.4587 94.421C75.0698 88.3907 82.9201 84.198 92.0569 85.1238C93.8581 85.3355 95.6263 85.7687 97.321 86.4136L103.12 29.1868C103.257 27.8972 102.926 26.601 102.188 25.5325C101.45 24.464 100.353 23.6939 99.0948 23.3614L55.9216 11.5656C55.1371 11.3551 54.3161 11.3174 53.5157 11.4552C52.7153 11.593 51.9548 11.9029 51.287 12.3635C50.6468 12.8272 50.1145 13.4231 49.7262 14.1105C49.338 14.7979 49.103 15.5607 49.0372 16.3469L38.9673 115.725C38.7942 117.191 38.3297 118.608 37.6008 119.892C36.8719 121.177 35.8932 122.304 34.7221 123.206C32.3926 124.961 29.7388 126.24 26.9123 126.971C24.0859 127.701 21.1422 127.87 18.2497 127.466C7.63074 126.39 -0.383298 119.445 0.389738 111.816C1.16277 104.187 10.4071 98.9906 21.0261 100.067C23.8328 100.343 26.5728 101.091 29.1301 102.278L37.9472 15.2641C38.1797 12.8711 38.9344 10.558 40.1582 8.48694C41.382 6.41583 43.0455 4.63672 45.0321 3.27418C47.0187 1.91164 49.2804 0.998616 51.6589 0.599045C54.0374 0.199474 56.475 0.323015 58.8013 0.961016L101.997 12.7386C105.794 13.7383 109.108 16.0589 111.34 19.2809C113.572 22.5029 114.574 26.4136 114.165 30.306Z" fill="white"/>
</svg>
