<svg width="51" height="103" viewBox="0 0 51 103" fill="none" xmlns="http://www.w3.org/2000/svg">
<path d="M51 62.5357C51 59.9607 49.9071 55.9143 46.6286 52.9714C44.0786 50.7643 39.7071 48.1893 32.7857 48.925C32.0571 48.925 31.6929 48.925 30.9643 49.2929C30.2357 47.0857 29.8714 44.8786 29.1429 42.6714C36.4286 36.05 40.0714 28.325 40.0714 18.3929C40.0714 5.15 31.3286 0.735714 30.9643 0.367857C29.8714 -3.56297e-07 29.1429 0 28.05 0C22.5857 1.83929 12.75 8.82857 16.3929 23.5429C18.2143 30.5321 19.3071 35.3143 20.4 39.3607C19.3071 40.0964 17.85 41.2 16.3929 41.9357C5.82857 48.1893 0.364286 54.8107 0 62.5357C0 67.3179 2.18571 72.8357 6.55714 76.8821C11.2929 81.6643 18.2143 84.2393 25.8643 83.8714C27.6857 83.8714 29.8714 83.5036 31.6929 83.1357C32.0571 89.0214 30.6 91.9643 29.5071 93.4357C27.6857 95.6429 25.8643 95.6429 25.5 95.6429C24.7714 95.6429 24.0429 95.275 24.0429 95.275C24.0429 95.275 24.0429 95.275 24.4071 94.9071C25.8643 93.4357 25.8643 91.2286 24.4071 89.7571C22.95 88.2857 20.7643 88.2857 19.3071 89.7571C16.7571 91.9643 16.0286 95.275 17.1214 98.2179C18.5786 100.793 21.8571 103 25.5 103C28.4143 103 32.4214 101.529 35.3357 97.85C38.25 93.8036 39.3429 88.2857 38.6143 80.5607C45.5357 77.25 51 71.3643 51 62.5357ZM28.7786 7.725C30.2357 9.19643 32.7857 12.5071 32.7857 18.3929C32.7857 24.6464 30.9643 29.7964 26.9571 34.2107C26.2286 30.9 25.1357 26.8536 23.6786 21.7036C21.4929 13.2429 26.2286 9.19643 28.7786 7.725ZM25.5 76.5143C18.5786 76.8821 14.2071 73.9393 11.6571 71.7321C8.37857 68.7893 7.28572 65.1107 7.65 62.9036C7.65 58.1214 12.0214 52.9714 20.4 48.5571C21.1286 48.1893 22.2214 47.4536 22.95 47.0857C23.3143 48.5571 23.6786 50.3964 24.4071 51.8679C19.6714 55.1786 16.0286 59.9607 14.9357 65.4786C14.5714 67.3179 16.0286 69.525 17.85 69.525C19.6714 69.8929 21.8571 68.4214 21.8571 66.5821C22.2214 64.0071 24.0429 61.4321 26.2286 59.5929L29.5071 70.6286C29.8714 72.4679 30.6 73.9393 30.6 75.7786C28.7786 76.1464 26.9571 76.5143 25.5 76.5143ZM37.5214 72.8357C37.1571 71.3643 36.7929 69.8929 36.4286 68.4214L32.7857 55.9143H33.15C36.7929 55.5464 39.7071 56.2821 41.5286 58.1214C43.35 59.5929 43.7143 61.4321 43.7143 62.1679C43.7143 67.3179 41.1643 70.6286 37.5214 72.8357Z" fill="white"/>
</svg>
