<svg width="52" height="52" viewBox="0 0 52 52" fill="none" xmlns="http://www.w3.org/2000/svg">
<path d="M16.6143 37.7244V14.1378H28.152C29.6435 14.1378 31.0071 14.4467 32.2429 15.0646C33.5 15.6825 34.4908 16.5774 35.2152 17.7493C35.9609 18.8999 36.3338 20.3061 36.3338 21.968C36.3338 23.63 35.9503 25.0469 35.1832 26.2188C34.4162 27.3906 33.3935 28.2855 32.1151 28.9034C30.8366 29.5 29.4197 29.7983 27.8643 29.7983H19.9702V25.3558H26.5859C27.4808 25.3558 28.2479 25.0682 28.8871 24.4929C29.5476 23.9176 29.8778 23.0653 29.8778 21.9361C29.8778 20.7642 29.5476 19.9332 28.8871 19.4432C28.2479 18.9318 27.4915 18.6761 26.6179 18.6761H22.7507V37.7244H16.6143ZM31.6676 26.826L37.0369 37.7244H30.3253L25.3075 26.826H31.6676ZM25.8509 51.7869C22.3139 51.7869 19.0007 51.1264 15.9112 49.8054C12.8217 48.4844 10.1051 46.652 7.76136 44.3082C5.41761 41.9645 3.58523 39.2479 2.2642 36.1584C0.943182 33.0689 0.282671 29.7557 0.282671 26.2188C0.282671 22.6818 0.943182 19.3686 2.2642 16.2791C3.58523 13.1896 5.41761 10.473 7.76136 8.12926C10.1051 5.78551 12.8217 3.95312 15.9112 2.6321C19.0007 1.31108 22.3139 0.650566 25.8509 0.650566C29.3878 0.650566 32.701 1.31108 35.7905 2.6321C38.88 3.95312 41.5966 5.78551 43.9403 8.12926C46.2841 10.473 48.1165 13.1896 49.4375 16.2791C50.7585 19.3686 51.419 22.6818 51.419 26.2188C51.419 29.7557 50.7585 33.0689 49.4375 36.1584C48.1165 39.2479 46.2841 41.9645 43.9403 44.3082C41.5966 46.652 38.88 48.4844 35.7905 49.8054C32.701 51.1264 29.3878 51.7869 25.8509 51.7869ZM25.8509 45.0433C29.3452 45.0433 32.5092 44.2017 35.343 42.5185C38.1982 40.8139 40.4673 38.5447 42.1506 35.7109C43.8338 32.8558 44.6754 29.6918 44.6754 26.2188C44.6754 22.7457 43.8232 19.5923 42.1186 16.7585C40.4354 13.9034 38.1662 11.6342 35.3111 9.95099C32.4773 8.24645 29.3239 7.39418 25.8509 7.39418C22.3991 7.39418 19.2457 8.24645 16.3906 9.95099C13.5355 11.6342 11.2663 13.9034 9.5831 16.7585C7.89986 19.5923 7.05824 22.7457 7.05824 26.2188C7.05824 29.6918 7.89986 32.8558 9.5831 35.7109C11.2663 38.5447 13.5355 40.8139 16.3906 42.5185C19.2457 44.2017 22.3991 45.0433 25.8509 45.0433Z" fill="white"/>
</svg>
