<svg width="133" height="20" viewBox="0 0 133 20" fill="none" xmlns="http://www.w3.org/2000/svg">
<path d="M19.9689 7.58739C19.8946 7.36518 19.702 7.20329 19.4704 7.16766L13.3216 6.22818L10.5667 0.359414C10.4635 0.140015 10.2429 0 10.0007 0C9.75845 0 9.53811 0.140015 9.43466 0.359414L6.67967 6.22818L0.530876 7.16797C0.299288 7.20329 0.107079 7.36549 0.0323835 7.5877C-0.0419996 7.8096 0.013944 8.05463 0.177712 8.22246L4.64508 12.8033L3.58934 19.274C3.55058 19.5103 3.65028 19.7481 3.84624 19.8856C3.95375 19.9616 4.0797 20 4.20597 20C4.30973 20 4.41411 19.9737 4.5085 19.9219L10.0003 16.8843L15.4922 19.9219C15.5866 19.9737 15.691 20 15.7947 20C15.921 20 16.0473 19.9616 16.1545 19.8856C16.3504 19.7481 16.4501 19.5103 16.4114 19.274L15.3556 12.8033L19.823 8.22246C19.9871 8.05432 20.0433 7.80929 19.9689 7.58739Z" fill="#6b8fed"/>
<path d="M47.9702 7.58739C47.8958 7.36518 47.7033 7.20329 47.4717 7.16766L41.3229 6.22818L38.5679 0.359414C38.4647 0.140015 38.2441 0 38.0019 0C37.7597 0 37.5393 0.140015 37.4359 0.359414L34.6809 6.22818L28.5321 7.16797C28.3005 7.20329 28.1083 7.36549 28.0336 7.5877C27.9592 7.8096 28.0152 8.05463 28.1789 8.22246L32.6463 12.8033L31.5906 19.274C31.5518 19.5103 31.6515 19.7481 31.8475 19.8856C31.955 19.9616 32.0809 20 32.2072 20C32.3109 20 32.4153 19.9737 32.5097 19.9219L38.0016 16.8843L43.4934 19.9219C43.5878 19.9737 43.6922 20 43.796 20C43.9222 20 44.0485 19.9616 44.1557 19.8856C44.3516 19.7481 44.4513 19.5103 44.4126 19.274L43.3568 12.8033L47.8242 8.22246C47.9883 8.05432 48.0445 7.80929 47.9702 7.58739Z" fill="#6b8fed"/>
<path d="M75.9714 7.58739C75.897 7.36518 75.7045 7.20329 75.4729 7.16766L69.3241 6.22818L66.5691 0.359414C66.466 0.140015 66.2453 0 66.0031 0C65.7609 0 65.5406 0.140015 65.4371 0.359414L62.6821 6.22818L56.5333 7.16797C56.3017 7.20329 56.1095 7.36549 56.0348 7.5877C55.9604 7.8096 56.0164 8.05463 56.1802 8.22246L60.6475 12.8033L59.5918 19.274C59.553 19.5103 59.6527 19.7481 59.8487 19.8856C59.9562 19.9616 60.0821 20 60.2084 20C60.3122 20 60.4166 19.9737 60.5109 19.9219L66.0028 16.8843L71.4946 19.9219C71.589 19.9737 71.6934 20 71.7972 20C71.9234 20 72.0497 19.9616 72.1569 19.8856C72.3529 19.7481 72.4526 19.5103 72.4138 19.274L71.3581 12.8033L75.8254 8.22246C75.9895 8.05432 76.0458 7.80929 75.9714 7.58739Z" fill="#6b8fed"/>
<path d="M103.973 7.58739C103.898 7.36518 103.706 7.20329 103.474 7.16766L97.3253 6.22818L94.5703 0.359414C94.4672 0.140015 94.2465 0 94.0043 0C93.7621 0 93.5418 0.140015 93.4383 0.359414L90.6833 6.22818L84.5345 7.16797C84.3029 7.20329 84.1107 7.36549 84.036 7.5877C83.9617 7.8096 84.0176 8.05463 84.1814 8.22246L88.6487 12.8033L87.593 19.274C87.5542 19.5103 87.6539 19.7481 87.8499 19.8856C87.9574 19.9616 88.0834 20 88.2096 20C88.3134 20 88.4178 19.9737 88.5122 19.9219L94.004 16.8843L99.4959 19.9219C99.5902 19.9737 99.6946 20 99.7984 20C99.9247 20 100.051 19.9616 100.158 19.8856C100.354 19.7481 100.454 19.5103 100.415 19.274L99.3593 12.8033L103.827 8.22246C103.991 8.05432 104.047 7.80929 103.973 7.58739Z" fill="#6b8fed"/>
<path d="M131.974 7.58739C131.899 7.36518 131.707 7.20329 131.475 7.16766L125.327 6.22818L122.572 0.359414C122.468 0.140015 122.248 0 122.006 0C121.763 0 121.543 0.140015 121.44 0.359414L118.685 6.22818L112.536 7.16797C112.304 7.20329 112.112 7.36549 112.037 7.5877C111.963 7.8096 112.019 8.05463 112.183 8.22246L116.65 12.8033L115.594 19.274C115.555 19.5103 115.655 19.7481 115.851 19.8856C115.959 19.9616 116.085 20 116.211 20C116.315 20 116.419 19.9737 116.513 19.9219L122.005 16.8843L127.497 19.9219C127.591 19.9737 127.696 20 127.8 20C127.926 20 128.052 19.9616 128.159 19.8856C128.355 19.7481 128.455 19.5103 128.416 19.274L127.361 12.8033L131.828 8.22246C131.992 8.05432 132.048 7.80929 131.974 7.58739Z" fill="#6b8fed"/>
</svg>
